<svg xmlns="http://www.w3.org/2000/svg" version="1.1" xmlns:xlink="http://www.w3.org/1999/xlink" xmlns:svgjs="http://svgjs.com/svgjs" width="1440" height="560" preserveAspectRatio="none" viewBox="0 0 1440 560"><g mask="url(&quot;#SvgjsMask1010&quot;)" fill="none"><rect width="1440" height="560" x="0" y="0" fill="rgba(0, 237, 217, 1)"></rect><path d="M1512 560L0 560 L0 305.71Q57.41 243.12, 120 300.53Q214.75 275.27, 240 370.02Q253.18 311.2, 312 324.38Q387.62 280, 432 355.62Q441.37 292.99, 504 302.35Q577.25 255.6, 624 328.85Q638.46 271.31, 696 285.78Q737.1 254.88, 768 295.97Q840.37 248.34, 888 320.71Q945.09 305.8, 960 362.89Q966.33 297.22, 1032 303.54Q1058.8 258.34, 1104 285.14Q1198.7 259.84, 1224 354.54Q1241.8 300.34, 1296 318.14Q1338.47 288.62, 1368 331.09Q1382.21 273.3, 1440 287.52Q1481.18 256.7, 1512 297.88z" fill="rgba(255, 144, 206, 1)"></path><path d="M1488 560L0 560 L0 414.3Q43.17 385.47, 72 428.63Q93.38 378, 144 399.38Q182.54 317.92, 264 356.46Q330.27 302.73, 384 368.99Q478.13 343.12, 504 437.25Q545.18 358.43, 624 399.61Q654.05 357.66, 696 387.71Q719.36 339.07, 768 362.43Q824.2 346.63, 840 402.83Q867.72 358.55, 912 386.28Q937.58 339.86, 984 365.44Q1038.65 348.1, 1056 402.75Q1136.13 362.88, 1176 443.02Q1196.79 343.81, 1296 364.6Q1339.24 335.84, 1368 379.07Q1441.73 332.8, 1488 406.53z" fill="rgba(233, 67, 159, 1)"></path><path d="M1536 560L0 560 L0 490.47Q58.78 429.25, 120 488.03Q157.62 405.64, 240 443.26Q292.92 424.18, 312 477.1Q366.14 459.25, 384 513.39Q390.18 447.57, 456 453.75Q476.15 401.9, 528 422.06Q570.84 392.9, 600 435.74Q698.91 414.65, 720 513.56Q757.56 431.12, 840 468.67Q906.04 414.71, 960 480.75Q1005.3 406.05, 1080 451.35Q1141.41 440.76, 1152 502.17Q1206.66 436.84, 1272 491.5Q1279.9 427.4, 1344 435.3Q1387.19 406.49, 1416 449.68Q1507.02 420.7, 1536 511.72z" fill="rgba(177, 53, 122, 1)"></path><path d="M1464 560L0 560 L0 496.27Q80.04 456.31, 120 536.35Q171.97 468.32, 240 520.28Q263.83 472.11, 312 495.93Q367.31 479.24, 384 534.54Q428.77 507.31, 456 552.08Q524.46 500.54, 576 568.99Q598.61 471.6, 696 494.21Q772.22 450.43, 816 526.66Q860.41 499.07, 888 543.48Q935.16 518.64, 960 565.8Q984.92 470.72, 1080 495.64Q1153.37 449.01, 1200 522.38Q1255.96 506.34, 1272 562.29Q1277.92 496.21, 1344 502.13Q1409.93 448.06, 1464 513.99z" fill="white"></path></g><defs><mask id="SvgjsMask1010"><rect width="1440" height="560" fill="#ffffff"></rect></mask></defs></svg>